<?xml version="1.0" encoding="UTF-8" standalone="no"?>
<!DOCTYPE svg PUBLIC "-//W3C//DTD SVG 1.1//EN" "http://www.w3.org/Graphics/SVG/1.1/DTD/svg11.dtd">
<!-- Created with Vectornator (http://vectornator.io/) -->
<svg height="160.0px" stroke-miterlimit="10" style="fill-rule:nonzero;clip-rule:evenodd;stroke-linecap:round;stroke-linejoin:round;" version="1.1" viewBox="0 0 160 160" width="160.0px" xml:space="preserve" xmlns="http://www.w3.org/2000/svg" xmlns:xlink="http://www.w3.org/1999/xlink">
<defs/>
<g id="Layer-1">
<path d="M0 0L160 0L160 160L0 160L0 0Z" fill="#1f242a" fill-rule="nonzero" opacity="1" stroke="none"/>
<g opacity="1">
<path d="M39.9 43L119.9 43L119.9 77L39.9 77L39.9 43ZM29.9 110L129.9 110L129.9 120L29.9 120L29.9 110ZM119.9 77L119.9 77L39.9 77L39.9 77C33.8 80.1 29.9 86.3 29.9 93.2L29.9 110L129.9 110L129.9 93.2C129.9 86.3 126 80.1 119.9 77Z" fill="#1f242a" fill-rule="nonzero" opacity="0" stroke="none"/>
<path d="M30.3447 90.8904C30.3447 83.219 36.5636 77 44.2351 77L115.565 77C123.236 77 129.455 83.219 129.455 90.8904L129.455 110L30.3447 110L30.3447 90.8904Z" fill="#ffd119" fill-rule="nonzero" opacity="1" stroke="none"/>
<path d="M129.9 113L29.9 113C28.2 113 26.9 111.7 26.9 110L26.9 93.2C26.9 85.2 31.4 77.9 38.6 74.3C40.1 73.6 41.9 74.2 42.6 75.6C43.3 77.1 42.7 78.9 41.3 79.6C36.2 82.2 33 87.3 33 93.1L33 107L127 107L127 93.2C127 87.4 123.8 82.3 118.7 79.7C117.2 79 116.6 77.2 117.4 75.7C118.2 74.2 119.9 73.6 121.4 74.4C128.6 78 133.1 85.2 133.1 93.3L133.1 110C132.9 111.7 131.6 113 129.9 113Z" fill="#454b54" fill-rule="nonzero" opacity="1" stroke="none"/>
<path d="M50.6 43L119.9 43L119.9 43C119.9 33.1 111.8 25 101.9 25L57.9 25C48 25 39.9 33.1 39.9 43L39.9 43" fill="#ffd119" fill-rule="nonzero" opacity="1" stroke="none"/>
<path d="M119.9 46L49.9 46C48.2 46 46.9 44.7 46.9 43C46.9 41.3 48.2 40 49.9 40L116.6 40C115.2 33.2 109.1 28 101.9 28L57.9 28C49.6 28 42.9 34.7 42.9 43C42.9 44.7 41.6 46 39.9 46C38.2 46 36.9 44.7 36.9 43C36.9 31.4 46.3 22 57.9 22L101.9 22C113.5 22 122.9 31.4 122.9 43C122.9 44.7 121.6 46 119.9 46Z" fill="#454b54" fill-rule="nonzero" opacity="1" stroke="none"/>
<path d="M112.9 120L124.9 120L124.9 135L112.9 135L112.9 120ZM34.9 120L46.9 120L46.9 135L34.9 135L34.9 120Z" fill="#1f242a" fill-rule="nonzero" opacity="0" stroke="none"/>
<path d="M124.9 138L112.9 138C111.2 138 109.9 136.7 109.9 135L109.9 120C109.9 118.3 111.2 117 112.9 117L124.9 117C126.6 117 127.9 118.3 127.9 120L127.9 135C127.9 136.7 126.6 138 124.9 138ZM115.9 132L121.9 132L121.9 123L115.9 123L115.9 132ZM46.9 138L34.9 138C33.2 138 31.9 136.7 31.9 135L31.9 120C31.9 118.3 33.2 117 34.9 117L46.9 117C48.6 117 49.9 118.3 49.9 120L49.9 135C49.9 136.7 48.6 138 46.9 138ZM37.9 132L43.9 132L43.9 123L37.9 123L37.9 132ZM119.9 80L53.2 80C51.5 80 50.2 78.7 50.2 77C50.2 75.3 51.5 74 53.2 74L116.9 74L116.9 43C116.9 41.3 118.2 40 119.9 40C121.6 40 122.9 41.3 122.9 43L122.9 77C122.9 78.7 121.6 80 119.9 80ZM39.9 80C38.2 80 36.9 78.7 36.9 77L36.9 43C36.9 41.3 38.2 40 39.9 40C41.6 40 42.9 41.3 42.9 43L42.9 77C42.9 78.7 41.6 80 39.9 80ZM129.9 71C128.2 71 126.9 69.7 126.9 68L126.9 53C126.9 51.3 128.2 50 129.9 50C131.6 50 132.9 51.3 132.9 53L132.9 68C132.9 69.7 131.6 71 129.9 71ZM29.9 71C28.2 71 26.9 69.7 26.9 68L26.9 53C26.9 51.3 28.2 50 29.9 50C31.6 50 32.9 51.3 32.9 53L32.9 68C32.9 69.7 31.6 71 29.9 71Z" fill="#454b54" fill-rule="nonzero" opacity="1" stroke="none"/>
<path d="M111.9 110L47.9 110L51.8 80.7C52.5 75.7 56.7 72 61.7 72L98.2 72C103.2 72 107.5 75.7 108.1 80.7L111.9 110Z" fill="#ffd119" fill-rule="nonzero" opacity="1" stroke="none"/>
<path d="M111.9 113L111.9 113L47.9 113C47 113 46.2 112.6 45.6 112C45 111.4 44.8 110.5 44.9 109.6L48.8 80.3C49.6 73.9 55.2 69 61.7 69L98.2 69C104.7 69 110.2 73.9 111.1 80.3L114.9 109.3C114.9 109.5 114.9 109.7 114.9 110C114.9 111.7 113.6 113 111.9 113ZM51.3 107L108.5 107L105.1 81.1C104.6 77.6 101.7 75 98.2 75L61.7 75C58.2 75 55.2 77.6 54.8 81.1L51.3 107Z" fill="#454b54" fill-rule="nonzero" opacity="1" stroke="none"/>
<path d="M98.9 89L61.7 89C60 89 58.7 87.7 58.7 86C58.7 84.3 60 83 61.7 83L98.9 83C100.6 83 101.9 84.3 101.9 86C101.9 87.7 100.6 89 98.9 89Z" fill="#454b54" fill-rule="nonzero" opacity="1" stroke="none"/>
<path d="M98.9 37L61.7 37C60 37 58.7 35.7 58.7 34C58.7 32.3 60 31 61.7 31L98.9 31C100.6 31 101.9 32.3 101.9 34C101.9 35.7 100.6 37 98.9 37Z" fill="#454b54" fill-rule="nonzero" opacity="1" stroke="none"/>
<path d="M98.9 99L61.7 99C60 99 58.7 97.7 58.7 96C58.7 94.3 60 93 61.7 93L98.9 93C100.6 93 101.9 94.3 101.9 96C101.9 97.7 100.6 99 98.9 99Z" fill="#454b54" fill-rule="nonzero" opacity="1" stroke="none"/>
<path d="M102.9 123L56.9 123C55.2 123 53.9 121.7 53.9 120C53.9 118.3 55.2 117 56.9 117L102.9 117C104.6 117 105.9 118.3 105.9 120C105.9 121.7 104.6 123 102.9 123Z" fill="#454b54" fill-rule="nonzero" opacity="1" stroke="none"/>
<path d="M40.9 86C38.1386 86 35.9 88.2386 35.9 91C35.9 93.7614 38.1386 96 40.9 96C43.6614 96 45.9 93.7614 45.9 91C45.9 88.2386 43.6614 86 40.9 86Z" fill="#ffffff" fill-rule="nonzero" opacity="1" stroke="none"/>
<path d="M119.9 86C117.139 86 114.9 88.2386 114.9 91C114.9 93.7614 117.139 96 119.9 96C122.661 96 124.9 93.7614 124.9 91C124.9 88.2386 122.661 86 119.9 86Z" fill="#ffffff" fill-rule="nonzero" opacity="1" stroke="none"/>
</g>
</g>
</svg>
