<?xml version="1.0" encoding="UTF-8" standalone="no"?>
<!-- Created with Inkscape (http://www.inkscape.org/) -->

<svg
   width="134.5396"
   height="13.410004"
   viewBox="0 0 35.596934 3.5480634"
   version="1.1"
   id="svg1"
   xmlns="http://www.w3.org/2000/svg"
   xmlns:svg="http://www.w3.org/2000/svg">
  <defs
     id="defs1" />
  <g
     id="layer1"
     transform="translate(-56.189888,-90.634987)">
    <path
       style="font-weight:900;font-size:4.68553px;font-family:'Neue Haas Grotesk Display Pro';-inkscape-font-specification:'Neue Haas Grotesk Display Pro Heavy';fill:#ffffff;stroke-width:0"
       d="m 56.189886,94.102087 v -3.405185 h 2.540003 v 0.8382 h -1.576553 v 0.557212 h 1.304575 v 0.771524 h -1.304575 v 1.238249 z m 2.811985,0 v -3.405185 h 0.963449 v 3.405185 z m 1.359893,0 v -3.405185 h 1.636482 q 0.539347,0 0.889693,0.261938 0.354954,0.257174 0.354954,0.752473 0,0.576262 -0.539347,0.828676 v 0.01429 q 0.373394,0.147638 0.460981,0.561975 0.03687,0.161925 0.0461,0.404812 0.0092,0.238124 0.02305,0.376237 0.01383,0.138112 0.06454,0.1524 v 0.05239 h -0.949628 q -0.04149,-0.02857 -0.05532,-0.1524 -0.01383,-0.128587 -0.02766,-0.32385 -0.01383,-0.195261 -0.04149,-0.314325 -0.0461,-0.204786 -0.147514,-0.300037 -0.101415,-0.09525 -0.304247,-0.09525 h -0.447151 v 1.185862 z m 0.96345,-2.624136 v 0.728662 h 0.516298 q 0.428713,0 0.428713,-0.361949 0,-0.17145 -0.106026,-0.266701 -0.106026,-0.100016 -0.308857,-0.100016 z m 3.572601,2.705098 q -0.673033,0 -1.092525,-0.300037 -0.419492,-0.300037 -0.428712,-0.866774 h 0.986499 q 0.0461,0.40005 0.553177,0.40005 0.165953,0 0.290417,-0.06668 0.129075,-0.07143 0.129075,-0.214312 0,-0.157163 -0.216661,-0.242888 -0.09681,-0.03809 -0.410273,-0.119062 -0.21205,-0.05239 -0.345735,-0.09525 -0.133684,-0.04286 -0.318077,-0.128587 -0.184393,-0.09048 -0.295027,-0.190501 -0.106026,-0.104774 -0.184392,-0.271462 -0.07836,-0.166687 -0.07836,-0.376238 0,-0.552449 0.378004,-0.814386 0.378003,-0.261938 0.981889,-0.261938 0.359564,0 0.645372,0.100016 0.285809,0.100017 0.47942,0.3429 0.193613,0.238124 0.198222,0.595312 h -0.95423 q -0.04609,-0.3048 -0.419492,-0.3048 -0.156734,0 -0.25815,0.06668 -0.101415,0.06668 -0.101415,0.17145 0,0.03334 0.0092,0.06191 0.0092,0.02381 0.03227,0.04763 0.02305,0.02381 0.0461,0.04286 0.02766,0.01905 0.07376,0.0381 0.0461,0.01429 0.08298,0.02857 0.04149,0.01429 0.110636,0.03334 0.06914,0.01429 0.119854,0.02857 0.05532,0.01429 0.142904,0.03334 0.08759,0.01905 0.156734,0.0381 0.239709,0.06191 0.410273,0.13335 0.170563,0.06668 0.341125,0.190499 0.175173,0.119063 0.262759,0.314325 0.09219,0.1905 0.09219,0.447675 0,0.538162 -0.405663,0.838199 -0.401053,0.300037 -1.014157,0.300037 z m 1.46131,-2.638422 v -0.847725 h 2.839642 v 0.847725 h -0.945011 v 2.55746 h -0.96345 v -2.55746 z m 5.144545,2.638422 q -0.673032,0 -1.092524,-0.300037 -0.419492,-0.300037 -0.428712,-0.866774 h 0.986498 q 0.04609,0.40005 0.553178,0.40005 0.165952,0 0.290417,-0.06668 0.129075,-0.07143 0.129075,-0.214312 0,-0.157163 -0.216661,-0.242888 -0.09681,-0.03809 -0.410273,-0.119062 -0.212051,-0.05239 -0.345736,-0.09525 -0.133684,-0.04286 -0.318076,-0.128587 -0.184393,-0.09048 -0.295028,-0.190501 -0.106026,-0.104774 -0.184393,-0.271462 -0.07836,-0.166687 -0.07836,-0.376238 0,-0.552449 0.378004,-0.814386 0.378004,-0.261938 0.981889,-0.261938 0.359565,0 0.645373,0.100016 0.285808,0.100017 0.47942,0.3429 0.193611,0.238124 0.198222,0.595312 H 71.82175 q -0.04609,-0.3048 -0.419492,-0.3048 -0.156733,0 -0.258149,0.06668 -0.101415,0.06668 -0.101415,0.17145 0,0.03334 0.0092,0.06191 0.0092,0.02381 0.03227,0.04763 0.02305,0.02381 0.0461,0.04286 0.02766,0.01905 0.07376,0.0381 0.0461,0.01429 0.08298,0.02857 0.04149,0.01429 0.110634,0.03334 0.06915,0.01429 0.119856,0.02857 0.05532,0.01429 0.142904,0.03334 0.08758,0.01905 0.156734,0.0381 0.239709,0.06191 0.410272,0.13335 0.170563,0.06668 0.341126,0.190499 0.175172,0.119063 0.262758,0.314325 0.0922,0.1905 0.0922,0.447675 0,0.538162 -0.405663,0.838199 -0.401053,0.300037 -1.014157,0.300037 z m 1.461311,-2.638422 v -0.847725 h 2.839641 v 0.847725 h -0.94501 v 2.55746 h -0.96345 v -2.55746 z m 4.554491,2.619372 q -0.72835,0 -1.101744,-0.352424 -0.368785,-0.357188 -0.368785,-1.009649 v -2.105024 h 0.963449 v 2.162173 q 0,0.242888 0.129075,0.376238 0.133685,0.13335 0.391834,0.13335 0.23971,0 0.364174,-0.142875 0.129075,-0.147638 0.129075,-0.385762 V 90.696902 H 78.99 v 2.105024 q 0,0.642936 -0.373394,1.004887 -0.373395,0.357186 -1.097134,0.357186 z m 1.843924,-0.06191 v -3.405185 h 1.521237 q 0.723739,0 1.166281,0.457199 0.442541,0.452438 0.442541,1.252538 0,0.809624 -0.437932,1.252536 -0.437931,0.442912 -1.212379,0.442912 z m 0.963449,-0.823911 h 0.437933 q 0.341125,0 0.543956,-0.223838 0.207442,-0.2286 0.207442,-0.647699 0,-0.4191 -0.202831,-0.652463 -0.198222,-0.233364 -0.548567,-0.233364 h -0.437933 z m 2.433976,0.823911 v -3.405185 h 2.567664 v 0.809625 h -1.604214 v 0.461962 h 1.341454 v 0.747712 h -1.341454 v 0.5334 h 1.650311 v 0.852486 z m 2.936444,0 v -3.405185 h 0.963449 l 1.078696,1.914524 h 0.0092 v -1.914524 h 0.931181 v 3.405185 H 87.68412 l -1.046426,-1.928811 h -0.0092 v 1.928811 z m 3.249912,-2.55746 v -0.847725 h 2.839642 v 0.847725 h -0.945011 v 2.55746 h -0.96345 v -2.55746 z"
       id="text2"
       aria-label="FIRST STUDENT" />
  </g>
</svg>
