<?xml version="1.0" encoding="UTF-8" standalone="no"?>

<!-- Created with Inkscape (http://www.inkscape.org/) -->

<svg
   width="36.925781"
   height="14.211456"
   viewBox="0 0 9.7699461 3.7601145"
   version="1.1"
   id="svg1"
   xmlns="http://www.w3.org/2000/svg"
   xmlns:svg="http://www.w3.org/2000/svg">
  <defs
     id="defs1" />
  <g
     id="layer1"
     transform="translate(-97.065171,-90.50553)">
    <g
       id="g9"
       style="fill:#ffffff;fill-opacity:1"
       transform="translate(33.300589,-13.475725)">
      <path
         style="font-style:italic;font-weight:900;font-size:4.7625px;font-family:'Neue Haas Grotesk Display Pro';-inkscape-font-specification:'Neue Haas Grotesk Display Pro Heavy Italic';fill:#ffffff;fill-opacity:1;stroke-width:0"
         d="m 66.088687,107.44835 h 0.652463 l 0.357187,-1.84785 H 65.71245 l -0.138113,0.70485 h 0.447675 c -0.08096,0.2667 -0.280987,0.42386 -0.614362,0.42386 -0.461963,0 -0.633413,-0.30004 -0.633413,-0.7239 0,-0.60484 0.28575,-1.20967 0.885825,-1.20967 0.276225,0 0.447675,0.1524 0.47625,0.40481 h 0.962025 c -0.01429,-0.86678 -0.661987,-1.2192 -1.414462,-1.2192 -1.204913,0 -1.919288,1.00965 -1.919288,2.0574 0,0.39052 0.08573,0.69532 0.252413,0.93345 0.24765,0.35719 0.638175,0.55721 1.147762,0.55721 0.366713,0 0.719138,-0.17145 0.904875,-0.4191 h 0.0095 z m 2.495553,0.081 c 0.762,0 1.4859,-0.37624 1.4859,-1.20015 0,-0.58579 -0.452437,-0.80962 -0.93345,-0.97631 -0.542925,-0.18574 -0.762,-0.21431 -0.762,-0.40005 0,-0.17145 0.200025,-0.24289 0.381,-0.24289 0.24765,0 0.409575,0.10954 0.4191,0.30956 h 0.966788 c 0.03334,-0.81915 -0.7239,-1.03822 -1.357313,-1.03822 -0.762,0 -1.362075,0.36671 -1.362075,1.11919 0,0.5715 0.414338,0.8001 1.0287,1.01441 0.357188,0.12382 0.600075,0.19526 0.604838,0.36195 0,0.23336 -0.219075,0.29051 -0.442913,0.29051 -0.314325,0 -0.5334,-0.13811 -0.538162,-0.40481 h -1.004888 c -0.01429,0.92869 0.809625,1.16681 1.514475,1.16681 z m 1.719259,-2.64795 h 0.93345 l -0.4953,2.56699 h 0.976313 l 0.4953,-2.56699 h 0.947737 l 0.161925,-0.8382 h -2.8575 z"
         id="text1"
         aria-label="GST" />
      <path
         id="text8"
         style="font-style:italic;font-weight:900;font-size:4.7625px;font-family:'Neue Haas Grotesk Display Pro';-inkscape-font-specification:'Neue Haas Grotesk Display Pro Heavy Italic';fill:#ffffff;fill-opacity:1;stroke-width:0"
         d="m 73.408438,104.25462 -0.141593,0.73277 h -0.947746 l -0.49506,2.56677 h -0.850078 l -0.02067,0.10593 h 0.976168 l 0.495577,-2.56676 h 0.947745 l 0.161748,-0.83871 z m -3.352767,0.24288 c 0.127945,0.15323 0.202704,0.35798 0.19172,0.62786 h -0.88315 c 0.01278,0.0318 0.02038,0.0672 0.02222,0.10594 h 0.966866 c 0.01374,-0.3376 -0.106836,-0.57338 -0.297656,-0.7338 z m -3.122807,0.0233 c 0.165085,0.19085 0.265763,0.44951 0.271302,0.78548 h -0.8785 c 0.01045,0.0329 0.01797,0.0684 0.02222,0.10594 h 0.962215 c -0.0066,-0.40276 -0.150114,-0.69452 -0.377237,-0.89142 z m 1.928565,0.29507 c -0.180975,0 -0.380855,0.0714 -0.380855,0.24288 0,0.0759 0.03643,0.12567 0.116788,0.17053 -0.0075,-0.0194 -0.01085,-0.0407 -0.01085,-0.0646 0,-0.17145 0.199881,-0.24288 0.380856,-0.24288 0.110681,0 0.204435,0.0215 0.274918,0.0636 -0.06297,-0.11067 -0.198932,-0.1695 -0.380855,-0.1695 z m -3.095418,0.0858 c -0.600075,0 -0.885734,0.6049 -0.885734,1.20974 0,0.26991 0.06947,0.48941 0.239261,0.6134 -0.09346,-0.1271 -0.133841,-0.3032 -0.133841,-0.50798 0,-0.60484 0.286175,-1.20923 0.88625,-1.20923 0.118278,0 0.217174,0.0278 0.294039,0.0796 -0.07994,-0.11862 -0.216911,-0.18551 -0.399975,-0.18551 z m 4.769734,0.0858 -0.02067,0.10594 h 0.807186 l 0.02067,-0.10594 z m -3.35225,0.82475 -0.336413,1.74202 h -0.549838 l 0.0031,0.10593 h 0.652673 l 0.222726,-1.15186 c -2e-6,-1.7e-4 10e-7,-3.5e-4 0,-5.2e-4 -1.33e-4,-0.0129 -2.03e-4,-0.0261 0,-0.0393 h 0.0078 l 0.126607,-0.6563 z m 0.63252,0.0388 c 0.177996,0.21175 0.475919,0.34617 0.84646,0.47542 0.208458,0.0723 0.378224,0.12683 0.484208,0.19276 -0.05839,-0.12374 -0.28187,-0.19131 -0.590145,-0.29817 -0.304774,-0.10633 -0.560365,-0.21654 -0.740523,-0.37001 z m 2.172994,0.0393 c 0.115716,0.13742 0.187068,0.31254 0.187068,0.54467 0,0.82391 -0.724214,1.20044 -1.486214,1.20044 -0.416142,0 -0.873493,-0.083 -1.175639,-0.3421 0.292679,0.34286 0.813307,0.44804 1.281576,0.44804 0.762,0 1.486214,-0.37654 1.486214,-1.20045 0,-0.2964 -0.116244,-0.50005 -0.293005,-0.6506 z m -3.813721,1.32601 c -0.185737,0.24765 -0.538141,0.4191 -0.904854,0.4191 -0.387046,0 -0.705404,-0.11563 -0.944646,-0.32763 0.247721,0.27917 0.603347,0.43357 1.050582,0.43357 0.313745,0 0.617034,-0.12595 0.814421,-0.3173 l -0.0057,-0.20774 z" />
    </g>
  </g>
</svg>
