<?xml version="1.0" encoding="UTF-8" standalone="no"?>
<!-- Created with Inkscape (http://www.inkscape.org/) -->

<svg
   width="99.754791"
   height="14.82724"
   viewBox="0 0 26.393455 3.9230406"
   version="1.1"
   id="svg1"
   xmlns="http://www.w3.org/2000/svg"
   xmlns:svg="http://www.w3.org/2000/svg">
  <defs
     id="defs1" />
  <g
     id="layer1"
     transform="translate(-78.361923,-98.048445)">
    <path
       style="font-stretch:condensed;font-size:5.78022px;font-family:Impact;-inkscape-font-specification:'Impact Condensed';fill:#ffffff;stroke-width:0"
       d="m 81.677806,98.127538 v 3.764882 h -1.442134 v -1.58129 h -0.431613 v 1.58129 h -1.442134 v -3.764882 h 1.442134 v 1.346435 h 0.431613 v -1.346435 z m 3.874238,2.204522 c 0,0.37827 -0.0137,0.64647 -0.04111,0.8046 -0.02512,0.15658 -0.107339,0.29998 -0.246635,0.4302 -0.13702,0.13023 -0.323139,0.23023 -0.558356,0.29999 -0.235218,0.0698 -0.509258,0.10464 -0.82212,0.10464 -0.296876,0 -0.564064,-0.0326 -0.801566,-0.0977 -0.235218,-0.0667 -0.424763,-0.16588 -0.568633,-0.29765 -0.143871,-0.13177 -0.229508,-0.27518 -0.256912,-0.43021 -0.02741,-0.15503 -0.04111,-0.42634 -0.04111,-0.8139 v -0.644153 c 0,-0.378275 0.01256,-0.645699 0.03769,-0.80227 0.02741,-0.158137 0.109621,-0.302317 0.246635,-0.432539 0.139304,-0.130222 0.326565,-0.230215 0.561783,-0.299977 0.235217,-0.06979 0.509256,-0.104647 0.822118,-0.104647 0.296877,0 0.562924,0.03329 0.798141,0.09999 0.237502,0.06509 0.428188,0.163558 0.572058,0.29533 0.143871,0.131779 0.229508,0.275184 0.256912,0.430207 0.02741,0.155031 0.04111,0.426335 0.04111,0.813904 z m -1.442135,-1.237136 c 0,-0.175185 -0.01484,-0.286803 -0.04453,-0.334862 -0.0274,-0.0496 -0.08564,-0.0744 -0.1747,-0.0744 -0.07536,0 -0.133596,0.02019 -0.174701,0.06048 -0.03883,0.03881 -0.05823,0.155056 -0.05823,0.348819 v 1.758029 c 0,0.2186 0.01256,0.35347 0.03768,0.40463 0.02741,0.0512 0.08906,0.0767 0.184977,0.0767 0.0982,0 0.160998,-0.0294 0.188402,-0.0884 0.02741,-0.0589 0.04111,-0.19921 0.04111,-0.42092 z m 3.422073,-0.967386 v 3.011442 h 0.876927 v 0.75344 h -2.319062 v -3.764882 z m 4.487401,1.641765 h -1.442135 v -0.655775 c 0,-0.190682 -0.01598,-0.309287 -0.04795,-0.355798 -0.02969,-0.04803 -0.09706,-0.07209 -0.202104,-0.07209 -0.118748,0 -0.194111,0.02867 -0.226083,0.08604 -0.03197,0.05735 -0.04795,0.181388 -0.04795,0.372071 v 1.748729 c 0,0.18293 0.01598,0.30231 0.04795,0.35812 0.03197,0.0558 0.103904,0.0837 0.215807,0.0837 0.107327,0 0.176983,-0.0279 0.208955,-0.0837 0.03425,-0.0558 0.05138,-0.18681 0.05138,-0.393 v -0.47206 h 1.442134 v 0.1465 c 0,0.38912 -0.04111,0.66507 -0.123317,0.82785 -0.07992,0.16279 -0.259194,0.30541 -0.537804,0.42789 -0.276323,0.12247 -0.617731,0.1837 -1.024223,0.1837 -0.422478,0 -0.770737,-0.0519 -1.044777,-0.1558 -0.27404,-0.10387 -0.455591,-0.24727 -0.544654,-0.4302 -0.08906,-0.18449 -0.133594,-0.46122 -0.133594,-0.83019 v -1.099929 c 0,-0.271304 0.0137,-0.474394 0.04111,-0.609272 0.02741,-0.136418 0.10848,-0.267423 0.24321,-0.392998 0.13702,-0.125576 0.325422,-0.224019 0.565208,-0.29533 0.242067,-0.07284 0.519532,-0.109295 0.832395,-0.109295 0.424762,0 0.775305,0.05578 1.051628,0.167431 0.276323,0.111618 0.457875,0.251151 0.544654,0.418582 0.08678,0.165882 0.130169,0.424778 0.130169,0.776695 z m 3.812578,0.562757 c 0,0.37827 -0.0137,0.64647 -0.04111,0.8046 -0.02512,0.15658 -0.107339,0.29998 -0.246636,0.4302 -0.13702,0.13023 -0.323138,0.23023 -0.558356,0.29999 -0.235217,0.0698 -0.509256,0.10464 -0.822119,0.10464 -0.296876,0 -0.564065,-0.0326 -0.801567,-0.0977 -0.235217,-0.0667 -0.424761,-0.16588 -0.568631,-0.29765 -0.143872,-0.13177 -0.229509,-0.27518 -0.256913,-0.43021 -0.02741,-0.15503 -0.04111,-0.42634 -0.04111,-0.8139 v -0.644153 c 0,-0.378275 0.01256,-0.645699 0.03769,-0.80227 0.02741,-0.158137 0.109621,-0.302317 0.246636,-0.432539 0.139304,-0.130222 0.326563,-0.230215 0.561781,-0.299977 0.235218,-0.06979 0.509258,-0.104647 0.82212,-0.104647 0.296876,0 0.562923,0.03329 0.798141,0.09999 0.237502,0.06509 0.428188,0.163558 0.572058,0.29533 0.143871,0.131779 0.229508,0.275184 0.256912,0.430207 0.02741,0.155031 0.04111,0.426335 0.04111,0.813904 z m -1.442134,-1.237136 c 0,-0.175185 -0.01484,-0.286803 -0.04453,-0.334862 -0.02741,-0.0496 -0.08564,-0.0744 -0.1747,-0.0744 -0.07536,0 -0.133596,0.02019 -0.1747,0.06048 -0.03883,0.03881 -0.05823,0.155056 -0.05823,0.348819 v 1.758029 c 0,0.2186 0.01256,0.35347 0.03768,0.40463 0.02741,0.0512 0.08906,0.0767 0.184977,0.0767 0.0982,0 0.160999,-0.0294 0.188403,-0.0884 0.02741,-0.0589 0.04111,-0.19921 0.04111,-0.42092 z m 6.429663,-0.967386 v 3.764882 h -1.260587 v -2.541699 l -0.503547,2.541699 H 98.1613 l -0.530952,-2.483562 v 2.483562 h -1.260583 v -3.764882 h 1.866896 c 0.05481,0.226342 0.113043,0.492999 0.1747,0.799955 l 0.198679,0.958083 0.328848,-1.758038 z m 0.57891,0 h 1.43871 c 0.45444,0 0.79814,0.02406 1.03107,0.07209 0.23522,0.04804 0.42476,0.145729 0.56863,0.292998 0.14387,0.145729 0.21581,0.381381 0.21581,0.706941 0,0.220138 -0.0514,0.37362 -0.15415,0.460437 -0.10048,0.08682 -0.3003,0.153474 -0.59946,0.199985 0.33341,0.05117 0.5595,0.136401 0.67825,0.255801 0.11874,0.11782 0.17812,0.29921 0.17812,0.54416 v 0.34881 c 0,0.25425 -0.0434,0.44261 -0.13017,0.56508 -0.0845,0.12248 -0.22037,0.20619 -0.40763,0.25115 -0.18726,0.045 -0.57092,0.0675 -1.15097,0.0675 h -1.66821 z m 1.44213,0.644149 v 0.837155 c 0.0617,-0.0016 0.10961,-0.0025 0.14387,-0.0025 0.14159,0 0.23179,-0.02323 0.27062,-0.06979 0.0388,-0.04803 0.0582,-0.183711 0.0582,-0.406956 0,-0.117822 -0.016,-0.199984 -0.048,-0.246495 -0.032,-0.04803 -0.0742,-0.07827 -0.12675,-0.09069 -0.0502,-0.01244 -0.14958,-0.01936 -0.29802,-0.02093 z m 0,1.423163 v 1.05343 c 0.20325,-0.004 0.33227,-0.0261 0.38708,-0.0651 0.0571,-0.0388 0.0856,-0.13412 0.0856,-0.28602 v -0.35115 c 0,-0.16123 -0.0251,-0.2589 -0.0754,-0.293 -0.0502,-0.0341 -0.18269,-0.0535 -0.39736,-0.0582 z"
       id="text3"
       aria-label="HOLCOMB" />
  </g>
</svg>
