<?xml version="1.0" encoding="UTF-8" standalone="no"?>
<!-- Created with Inkscape (http://www.inkscape.org/) -->

<svg
   width="62.244038"
   height="12.996002"
   viewBox="0 0 16.468735 3.4385256"
   version="1.1"
   id="svg1"
   xmlns="http://www.w3.org/2000/svg"
   xmlns:svg="http://www.w3.org/2000/svg">
  <defs
     id="defs1" />
  <g
     id="layer1"
     transform="translate(-55.639904,-98.335463)">
    <path
       style="font-weight:bold;font-size:4.7625px;font-family:'IBM Plex Serif';-inkscape-font-specification:'IBM Plex Serif Bold';fill:#ffffff;fill-opacity:1;stroke-width:0"
       d="m 55.639904,101.4025 h 0.333375 V 98.706925 H 55.639904 V 98.3926 h 1.462087 v 0.314325 h -0.357187 v 2.667005 h 0.904875 v -0.63818 h 0.55245 v 0.98108 h -2.562225 z m 2.952754,0 h 0.333375 V 98.706925 H 58.592658 V 98.3926 h 1.871662 q 0.219075,0 0.404813,0.04762 0.185737,0.04762 0.319087,0.1524 0.138113,0.100013 0.214313,0.261938 0.0762,0.157162 0.0762,0.381 0,0.17145 -0.05715,0.314325 -0.05715,0.142875 -0.157163,0.252412 -0.100012,0.104775 -0.233362,0.180975 -0.13335,0.07144 -0.290513,0.10478 l 0.614363,1.03346 q 0.09525,0.16192 0.195262,0.22384 0.104775,0.0572 0.257175,0.0572 h 0.02381 v 0.31432 H 61.37872 q -0.166687,0 -0.290512,-0.0238 -0.123825,-0.0286 -0.219075,-0.0857 -0.09525,-0.0572 -0.166688,-0.14287 -0.07144,-0.0857 -0.13335,-0.20955 l -0.51435,-1.00965 h -0.357187 v 1.15728 h 0.333375 v 0.31433 h -1.438275 z m 1.1049,-1.481137 h 0.47625 q 0.509587,0 0.509587,-0.452438 v -0.280987 q 0,-0.452438 -0.509587,-0.452438 h -0.47625 z m 2.39554,1.481137 h 0.333375 V 98.706925 H 62.093098 V 98.3926 h 1.438275 v 0.314325 h -0.333375 v 1.128713 h 1.266825 V 98.706925 H 64.131448 V 98.3926 h 1.438275 v 0.314325 h -0.333375 v 2.695575 h 0.333375 v 0.31433 h -1.438275 v -0.31433 h 0.333375 v -1.22396 h -1.266825 v 1.22396 h 0.333375 v 0.31433 h -1.438275 z m 5.191126,0.37148 q -0.142875,0 -0.261938,-0.0333 -0.1143,-0.0286 -0.204787,-0.0762 -0.08573,-0.0524 -0.147638,-0.10954 -0.05715,-0.0619 -0.08572,-0.1143 h -0.01905 v 0.27622 h -0.55245 v -0.97155 h 0.55245 v 0.20479 q 0,0.25718 0.180975,0.36671 0.180975,0.10478 0.4953,0.10478 0.328613,0 0.485775,-0.13335 0.161925,-0.13335 0.161925,-0.34766 0,-0.10478 -0.02858,-0.18098 -0.02381,-0.0762 -0.08572,-0.12859 -0.06191,-0.0572 -0.166687,-0.0953 -0.104775,-0.0429 -0.261938,-0.0762 l -0.214312,-0.0476 q -0.242888,-0.0476 -0.447675,-0.12858 -0.200025,-0.0857 -0.3429,-0.21908 -0.142875,-0.13335 -0.223838,-0.319088 -0.0762,-0.185737 -0.0762,-0.43815 0,-0.214312 0.0762,-0.390525 0.0762,-0.180975 0.219075,-0.309562 0.142875,-0.128588 0.352425,-0.200025 0.214313,-0.07144 0.485775,-0.07144 0.147638,0 0.261938,0.03334 0.119062,0.02858 0.204787,0.0762 0.09049,0.04762 0.147638,0.109537 0.05715,0.05715 0.08572,0.109538 h 0.01905 v -0.271463 h 0.55245 v 0.97155 h -0.55245 v -0.20955 q 0,-0.252412 -0.176213,-0.357187 -0.176212,-0.109538 -0.4572,-0.109538 -0.32385,0 -0.47625,0.138113 -0.147637,0.13335 -0.147637,0.32385 0,0.109537 0.03334,0.185737 0.03334,0.0762 0.104775,0.13335 0.0762,0.05715 0.195263,0.100013 0.119062,0.0381 0.290512,0.0762 l 0.200025,0.0381 q 0.24765,0.05239 0.442913,0.138112 0.200025,0.08096 0.333375,0.209548 0.138112,0.12859 0.20955,0.3048 0.07144,0.17145 0.07144,0.40005 0,0.22384 -0.08572,0.41434 -0.08572,0.1905 -0.24765,0.32861 -0.157162,0.13812 -0.385762,0.21908 -0.2286,0.0762 -0.51435,0.0762 z m 1.671636,-0.37148 h 0.333375 V 98.706925 H 68.95586 V 98.3926 h 1.552575 q 0.3429,0 0.633412,0.1143 0.295275,0.109538 0.509588,0.32385 0.214312,0.20955 0.333375,0.519113 0.123825,0.309562 0.123825,0.704847 0,0.39529 -0.123825,0.70485 -0.119063,0.30957 -0.333375,0.52388 -0.214313,0.20955 -0.509588,0.32385 -0.290512,0.10954 -0.633412,0.10954 H 68.95586 Z m 1.1049,-0.0286 h 0.309562 q 0.238125,0 0.404813,-0.0476 0.17145,-0.0476 0.276225,-0.14764 0.109537,-0.10477 0.157162,-0.27146 0.05239,-0.17145 0.05239,-0.41434 v -0.876297 q 0,-0.242888 -0.05239,-0.409575 -0.04762,-0.17145 -0.157162,-0.271463 -0.104775,-0.104775 -0.276225,-0.1524 -0.166688,-0.04762 -0.404813,-0.04762 H 70.06076 Z"
       id="text4"
       aria-label="LRHSD" />
  </g>
</svg>
