<?xml version="1.0" encoding="UTF-8" standalone="no"?>
<!DOCTYPE svg PUBLIC "-//W3C//DTD SVG 1.1//EN" "http://www.w3.org/Graphics/SVG/1.1/DTD/svg11.dtd">
<!-- Created with Vectornator (http://vectornator.io/) -->
<svg fill="#ffffff" height="64pt" stroke-miterlimit="10" style="fill-rule:nonzero;clip-rule:evenodd;stroke-linecap:round;stroke-linejoin:round;" version="1.1" viewBox="0 0 64 64" width="64.0pt" xml:space="preserve" xmlns="http://www.w3.org/2000/svg" xmlns:xlink="http://www.w3.org/1999/xlink">
<defs/>
<g id="Untitled">
<g opacity="1">
<path d="M31.9993 0C15.3091 0.0028083 1.42438 12.8336 0.106728 29.4717L17.2565 36.559C18.7601 35.5338 20.538 34.986 22.3579 34.9871L22.8631 34.9871L30.4907 23.9072L30.4907 23.7528C30.4907 17.0871 35.8943 11.6834 42.56 11.6834C49.2258 11.6834 54.6294 17.0871 54.6294 23.7528C54.6294 30.4185 49.2258 35.8222 42.56 35.8222L42.2864 35.8222L31.4029 43.5831C31.4029 43.7234 31.4029 43.8638 31.4029 44.0111C31.4071 48.6706 27.876 52.5734 23.2393 53.034C18.6026 53.4946 14.3728 50.3627 13.4602 45.7934L1.20841 40.699C5.70492 56.6115 21.5851 66.477 37.8427 63.4579C54.1003 60.4388 65.3798 45.5298 63.8636 29.0638C62.3474 12.5979 48.5349-0.000601601 31.9993 0Z" fill-rule="nonzero" opacity="1" stroke="none"/>
<path d="M20.1615 48.5582L16.246 46.9302C17.8361 50.2446 21.7745 51.6926 25.1329 50.1974C28.4912 48.7022 30.0506 44.8066 28.6516 41.4071C27.2527 38.0076 23.403 36.3379 19.9651 37.6396L24.0139 39.2956C26.5717 40.3594 27.7828 43.2953 26.719 45.8531C25.6552 48.4109 22.7193 49.622 20.1615 48.5582Z" fill-rule="nonzero" opacity="1" stroke="none"/>
<path d="M50.6297 23.7528C50.6335 19.3095 47.0361 15.7037 42.5928 15.6972C38.1495 15.6908 34.5416 19.2862 34.5325 23.7295C34.5235 28.1727 38.1168 31.7828 42.56 31.7944C47.009 31.8021 50.6219 28.2018 50.6297 23.7528ZM36.5955 23.7528C36.5955 20.4152 39.3019 17.7098 42.6396 17.7111C45.9772 17.7124 48.6815 20.4198 48.6789 23.7575C48.6764 27.0951 45.9679 29.7984 42.6302 29.7945C41.0157 29.8095 39.4624 29.1777 38.3168 28.04C37.1711 26.9023 36.5286 25.3533 36.5324 23.7388L36.5955 23.7528Z" fill-rule="nonzero" opacity="1" stroke="none"/>
</g>
</g>
</svg>